<svg width="31" height="24" viewBox="0 0 31 24" fill="none" xmlns="http://www.w3.org/2000/svg">
<path d="M4.62492 7.70835H5.11825L7.04533 2.89835C7.3895 2.04312 7.9814 1.31026 8.74506 0.793829C9.50872 0.2774 10.4093 0.000969252 11.3312 1.8959e-05H20.5812C21.6522 -0.0030464 22.6911 0.365689 23.5205 1.04328C24.3499 1.72088 24.9185 2.66533 25.1291 3.71544L25.9308 7.70835H26.2083C27.4349 7.70835 28.6113 8.19563 29.4786 9.06298C30.346 9.93034 30.8333 11.1067 30.8333 12.3334V16.9584C30.8333 17.3672 30.6708 17.7594 30.3817 18.0485C30.0926 18.3376 29.7005 18.5 29.2916 18.5H27.7499C27.7499 19.7266 27.2626 20.903 26.3953 21.7704C25.5279 22.6377 24.3515 23.125 23.1249 23.125C21.8983 23.125 20.7219 22.6377 19.8545 21.7704C18.9872 20.903 18.4999 19.7266 18.4999 18.5H12.3333C12.3333 19.7266 11.846 20.903 10.9786 21.7704C10.1113 22.6377 8.93488 23.125 7.70825 23.125C6.48162 23.125 5.30524 22.6377 4.43788 21.7704C3.57053 20.903 3.08325 19.7266 3.08325 18.5H1.54158C1.13271 18.5 0.740578 18.3376 0.45146 18.0485C0.16234 17.7594 -8.39233e-05 17.3672 -8.39233e-05 16.9584V12.3334C-8.2016e-05 11.1067 0.487192 9.93034 1.35455 9.06298C2.2219 8.19563 3.39829 7.70835 4.62492 7.70835ZM13.8749 3.08335H11.3312C11.025 3.08612 10.7267 3.17997 10.4741 3.35295C10.2215 3.52592 10.0261 3.77018 9.91283 4.0546L8.44825 7.70835H13.8749V3.08335ZM22.1074 4.31669C22.0353 3.96322 21.8416 3.64622 21.5599 3.42087C21.2782 3.19551 20.9264 3.07608 20.5658 3.08335H16.9583V7.70835H22.7858L22.1074 4.31669ZM23.1249 20.0417C23.4298 20.0417 23.7279 19.9513 23.9814 19.7819C24.2349 19.6125 24.4325 19.3717 24.5492 19.09C24.6659 18.8083 24.6964 18.4983 24.637 18.1993C24.5775 17.9002 24.4306 17.6255 24.215 17.4099C23.9994 17.1943 23.7247 17.0475 23.4257 16.988C23.1266 16.9285 22.8167 16.959 22.5349 17.0757C22.2532 17.1924 22.0125 17.39 21.8431 17.6435C21.6737 17.897 21.5833 18.1951 21.5833 18.5C21.5833 18.9089 21.7457 19.301 22.0348 19.5901C22.3239 19.8793 22.716 20.0417 23.1249 20.0417ZM7.70825 20.0417C8.01316 20.0417 8.31123 19.9513 8.56476 19.7819C8.81828 19.6125 9.01588 19.3717 9.13256 19.09C9.24925 18.8083 9.27978 18.4983 9.22029 18.1993C9.16081 17.9002 9.01398 17.6255 8.79837 17.4099C8.58277 17.1943 8.30807 17.0475 8.00902 16.988C7.70996 16.9285 7.39998 16.959 7.11828 17.0757C6.83658 17.1924 6.5958 17.39 6.4264 17.6435C6.257 17.897 6.16658 18.1951 6.16658 18.5C6.16658 18.9089 6.32901 19.301 6.61813 19.5901C6.90725 19.8793 7.29938 20.0417 7.70825 20.0417ZM3.08325 15.4167H4.28575C4.71924 14.9398 5.24762 14.5587 5.837 14.2979C6.42638 14.0372 7.06376 13.9025 7.70825 13.9025C8.35274 13.9025 8.99012 14.0372 9.5795 14.2979C10.1689 14.5587 10.6973 14.9398 11.1308 15.4167H19.7024C20.1359 14.9398 20.6643 14.5587 21.2537 14.2979C21.8431 14.0372 22.4804 13.9025 23.1249 13.9025C23.7694 13.9025 24.4068 14.0372 24.9962 14.2979C25.5856 14.5587 26.1139 14.9398 26.5474 15.4167H27.7499V12.3334C27.7499 11.9245 27.5875 11.5323 27.2984 11.2432C27.0093 10.9541 26.6171 10.7917 26.2083 10.7917H4.62492C4.21604 10.7917 3.82391 10.9541 3.53479 11.2432C3.24567 11.5323 3.08325 11.9245 3.08325 12.3334V15.4167Z" fill="#757A8D"/>
</svg>
