<svg width="17" height="17" viewBox="0 0 17 17" fill="none" xmlns="http://www.w3.org/2000/svg">
<path d="M12.205 0C15.0876 0 17 2.05415 17 5.00919V11.9908C17 14.9458 15.0876 17 12.205 17H4.79502C1.91243 17 0 14.9458 0 11.9908V5.00919C0 2.05692 1.91748 0 4.79502 0H12.205ZM12.205 1.18605H4.79502C2.59184 1.18605 1.18605 2.69407 1.18605 5.00919V11.9908C1.18605 14.309 2.58716 15.814 4.79502 15.814H12.205C14.4128 15.814 15.814 14.309 15.814 11.9908V5.00919C15.814 2.69099 14.4128 1.18605 12.205 1.18605ZM8.5 5.00299C8.80023 5.00299 9.04834 5.22609 9.08761 5.51554L9.09302 5.59601L9.09245 7.89905L11.3992 7.89945C11.7267 7.89945 11.9922 8.16496 11.9922 8.49248C11.9922 8.7927 11.7691 9.04082 11.4797 9.08009L11.3992 9.0855L9.09245 9.0848L9.09302 11.3889C9.09302 11.7165 8.82752 11.982 8.5 11.982C8.19978 11.982 7.95166 11.7589 7.91239 11.4694L7.90698 11.3889L7.9067 9.0848L5.60078 9.0855C5.27326 9.0855 5.00775 8.81999 5.00775 8.49248C5.00775 8.19225 5.23085 7.94414 5.52031 7.90487L5.60078 7.89945L7.9067 7.89905L7.90698 5.59601C7.90698 5.26849 8.17248 5.00299 8.5 5.00299Z" fill="#464A53"/>
</svg>
