<svg width="16" height="19" viewBox="0 0 16 19" fill="none" xmlns="http://www.w3.org/2000/svg">
<path d="M15.2 15.5136C15.2 18.6381 10.8627 19 7.6 19C7.27114 19 6.94707 18.9953 6.62873 18.9858C6.25016 18.9763 5.9519 18.6618 5.96337 18.2847C5.97389 17.9085 6.30083 17.6254 6.66792 17.6225C6.97384 17.6311 7.28453 17.6349 7.6 17.6349C11.7317 17.6349 13.8272 16.9215 13.8272 15.5136C13.8272 14.0924 11.7317 13.3714 7.6 13.3714C3.46828 13.3714 1.37278 14.0858 1.37278 15.4946C1.37278 15.9553 1.53721 16.6232 2.96448 17.1038C3.32392 17.2245 3.51608 17.6111 3.39467 17.9674C3.2723 18.3236 2.88418 18.5184 2.52377 18.3949C0.437836 17.6928 0 16.4303 0 15.4946C0 12.433 4.16203 12.0231 7.39894 12.0077L7.96181 12.0079C10.1205 12.0189 15.2 12.2095 15.2 15.5136ZM7.6 0C10.422 0 12.7173 2.28184 12.7173 5.08617C12.7173 7.88955 10.422 10.1714 7.6 10.1714C4.77796 10.1714 2.48171 7.88955 2.48171 5.08617C2.48171 2.28184 4.77796 0 7.6 0ZM7.6 1.36512C5.53509 1.36512 3.85545 3.03422 3.85545 5.08617C3.85545 7.13717 5.53509 8.80628 7.6 8.80628C9.66491 8.80628 11.3446 7.13717 11.3446 5.08617C11.3446 3.03422 9.66491 1.36512 7.6 1.36512Z" fill="#322209"/>
</svg>
