<svg width="28" height="27" viewBox="0 0 28 27" fill="none" xmlns="http://www.w3.org/2000/svg">
<path d="M12.5672 0C15.7791 0 18.4007 2.52981 18.5479 5.70542L18.5544 5.98725V7.2468C18.5544 7.80599 18.1011 8.2593 17.5419 8.2593C17.0293 8.2593 16.6057 7.87839 16.5386 7.38419L16.5294 7.2468V5.98725C16.5294 3.87733 14.8797 2.15226 12.7999 2.03173L12.5672 2.025H5.9859C3.87713 2.025 2.15224 3.67488 2.03173 5.75448L2.025 5.98725V21.0128C2.025 23.1225 3.67457 24.8477 5.75323 24.9683L5.9859 24.975H12.5807C14.6831 24.975 16.4026 23.3312 16.5227 21.2595L16.5294 21.0276V19.7546C16.5294 19.1954 16.9827 18.7421 17.5419 18.7421C18.0545 18.7421 18.4781 19.123 18.5452 19.6172L18.5544 19.7546V21.0276C18.5544 24.2288 16.0342 26.8422 12.87 26.9931L12.5807 27H5.9859C2.775 27 0.153685 24.47 0.00651669 21.2946L0 21.0128V5.98725C0 2.77553 2.52957 0.153714 5.70416 0.00651792L5.9859 0H12.5672ZM23.3605 8.74916L23.4743 8.84694L27.4271 12.7822C27.4627 12.8175 27.4939 12.8535 27.5225 12.8915L27.4271 12.7822C27.4683 12.8233 27.5053 12.867 27.538 12.9128C27.561 12.9449 27.5823 12.9788 27.6016 13.0139C27.6051 13.0207 27.6087 13.0275 27.6122 13.0342C27.6292 13.0666 27.6444 13.1001 27.6578 13.1346C27.6632 13.1497 27.6687 13.165 27.6738 13.1804C27.6836 13.2088 27.6919 13.238 27.6989 13.2677C27.7021 13.2836 27.7054 13.2994 27.7084 13.3152C27.7139 13.3428 27.718 13.3712 27.7208 13.4001C27.7223 13.4201 27.7237 13.44 27.7244 13.4598C27.7254 13.4732 27.7256 13.4865 27.7256 13.4999L27.7245 13.5381C27.7237 13.5589 27.7223 13.5796 27.7202 13.6003L27.7256 13.4999C27.7256 13.5631 27.7198 13.625 27.7087 13.685C27.7055 13.7 27.7022 13.7158 27.6985 13.7316C27.6916 13.7629 27.683 13.7932 27.673 13.8229C27.6679 13.8367 27.6628 13.8507 27.6575 13.8646C27.645 13.8982 27.6304 13.9307 27.6141 13.9622C27.6101 13.9693 27.6059 13.9773 27.6015 13.9853C27.555 14.0708 27.4968 14.1481 27.4291 14.2158L27.4272 14.2171L23.4744 18.1537C23.0782 18.5483 22.4371 18.547 22.0425 18.1508C21.6838 17.7906 21.6523 17.228 21.9472 16.8323L22.0454 16.7189L24.2582 14.5112L10.4578 14.5124C9.89859 14.5124 9.44528 14.0591 9.44528 13.4999C9.44528 12.9873 9.82618 12.5637 10.3204 12.4966L10.4578 12.4874L24.2609 12.4862L22.0456 10.282C21.6853 9.92336 21.6514 9.36094 21.9446 8.96391L22.0424 8.85013C22.401 8.48987 22.9635 8.45594 23.3605 8.74916Z" fill="#757A8D"/>
</svg>
