<svg width="27" height="27" viewBox="0 0 27 27" fill="none" xmlns="http://www.w3.org/2000/svg">
<path d="M7.32093 22.8272C8.44815 22.8272 9.36478 23.764 9.36478 24.9143C9.36478 26.0646 8.44815 27 7.32093 27C6.19371 27 5.27573 26.0646 5.27573 24.9143C5.27573 23.764 6.19371 22.8272 7.32093 22.8272ZM22.5107 22.8272C23.638 22.8272 24.5559 23.764 24.5559 24.9143C24.5559 26.0646 23.638 27 22.5107 27C21.3835 27 20.4669 26.0646 20.4669 24.9143C20.4669 23.764 21.3835 22.8272 22.5107 22.8272ZM1.04685 0.00043184L1.1852 0.0137034L3.99448 0.511026C4.44807 0.590928 4.79231 0.975286 4.83011 1.44368L6.13012 17.2478C6.19222 18.0055 6.80106 18.5772 7.54759 18.5772H22.2771C22.979 18.5772 23.5838 18.0427 23.6851 17.3346L24.9662 8.29874C25.0121 7.97913 24.869 7.75458 24.7799 7.6485C24.6908 7.5438 24.4937 7.36747 24.1765 7.36747H9.67108C9.1122 7.36747 8.65861 6.90458 8.65861 6.33425C8.65861 5.76391 9.1122 5.30103 9.67108 5.30103H24.1765C24.9959 5.30103 25.7748 5.66472 26.3108 6.29705C26.8467 6.92938 27.0883 7.7656 26.9709 8.59493L25.6884 17.6308C25.4454 19.3487 23.9794 20.6436 22.2771 20.6436H7.54759C5.73998 20.6436 4.26312 19.2577 4.11192 17.42L2.87806 2.41077L0.839606 2.05121C0.28882 1.9534 -0.0797206 1.41888 0.014777 0.85681C0.109275 0.293361 0.627662 -0.0772198 1.1852 0.0137034L1.04685 0.00043184ZM20.1133 10.3936C20.6722 10.3936 21.1258 10.8564 21.1258 11.4268C21.1258 11.9971 20.6722 12.46 20.1133 12.46H16.3699C15.8097 12.46 15.3574 11.9971 15.3574 11.4268C15.3574 10.8564 15.8097 10.3936 16.3699 10.3936H20.1133Z" fill="#30220D" fill-opacity="0.96"/>
</svg>
