<svg width="31" height="24" fill="none" xmlns="http://www.w3.org/2000/svg"><path d="M4.625 7.708h.493l1.927-4.81A4.625 4.625 0 0111.331 0h9.25a4.625 4.625 0 014.548 3.715l.802 3.993h.277a4.625 4.625 0 014.625 4.625v4.625a1.542 1.542 0 01-1.541 1.542H27.75a4.625 4.625 0 01-9.25 0h-6.167a4.625 4.625 0 01-9.25 0H1.542A1.542 1.542 0 010 16.958v-4.625a4.625 4.625 0 014.625-4.625zm9.25-4.625H11.33a1.541 1.541 0 00-1.418.972L8.448 7.708h5.427V3.083zm8.232 1.234a1.542 1.542 0 00-1.541-1.234h-3.608v4.625h5.828l-.679-3.391zm1.018 15.725a1.542 1.542 0 100-3.084 1.542 1.542 0 000 3.084zm-15.417 0a1.542 1.542 0 100-3.084 1.542 1.542 0 000 3.084zm-4.625-4.625h1.203a4.626 4.626 0 016.845 0h8.571a4.626 4.626 0 016.845 0h1.203v-3.084a1.542 1.542 0 00-1.542-1.541H4.625a1.542 1.542 0 00-1.542 1.541v3.084z" fill="#757A8D"/></svg>