<svg width="17" height="17" fill="none" xmlns="http://www.w3.org/2000/svg"><path d="M12.205 0C15.088 0 17 2.054 17 5.01v6.98c0 2.956-1.912 5.01-4.795 5.01h-7.41C1.912 17 0 14.946 0 11.99V5.01C0 2.056 1.917 0 4.795 0h7.41zm0 1.186h-7.41c-2.203 0-3.609 1.508-3.609 3.823v6.982c0 2.318 1.401 3.823 3.609 3.823h7.41c2.208 0 3.609-1.505 3.609-3.823V5.009c0-2.318-1.401-3.823-3.609-3.823zM8.5 5.003c.3 0 .548.223.588.513l.005.08v2.303h2.306a.593.593 0 01.08 1.181l-.08.005H9.092l.001 2.304a.593.593 0 01-1.18.08l-.006-.08V9.085H5.6a.593.593 0 01-.08-1.18l.08-.006h2.306V5.596c0-.328.265-.593.593-.593z" fill="#464A53"/></svg>