<svg width="22" height="28" fill="none" xmlns="http://www.w3.org/2000/svg"><path d="M22 9.716a1.863 1.863 0 00-.082-.378v-.126a1.498 1.498 0 00-.262-.392l-8.25-8.4a1.47 1.47 0 00-.385-.266h-.123A1.195 1.195 0 0012.444 0H4.125a4.088 4.088 0 00-2.917 1.23A4.24 4.24 0 000 4.2v19.6c0 1.114.435 2.182 1.208 2.97A4.088 4.088 0 004.125 28h13.75a4.088 4.088 0 002.917-1.23A4.239 4.239 0 0022 23.8V9.716zm-8.25-4.942L17.311 8.4h-2.186c-.365 0-.714-.148-.972-.41A1.413 1.413 0 0113.75 7V4.774zm5.5 19.026c0 .371-.145.727-.403.99-.258.262-.607.41-.972.41H4.125c-.365 0-.714-.148-.972-.41a1.413 1.413 0 01-.403-.99V4.2c0-.371.145-.727.403-.99s.607-.41.972-.41H11V7c0 1.114.435 2.182 1.208 2.97a4.088 4.088 0 002.917 1.23h4.125v12.6z" fill="#6F7488"/></svg>