<svg width="15" height="15" fill="none" xmlns="http://www.w3.org/2000/svg"><g clip-path="url(#clip0_1:92)" fill="#fff"><path d="M11.719 15H3.28c-.775 0-1.406-.63-1.406-1.406V7.03c0-.775.631-1.406 1.406-1.406h8.438c.775 0 1.406.63 1.406 1.406v6.563c0 .775-.631 1.406-1.406 1.406zM3.28 6.562a.47.47 0 00-.469.47v6.562a.47.47 0 00.47.469h8.437a.47.47 0 00.469-.47V7.032a.47.47 0 00-.47-.468H3.282z"/><path d="M10.781 6.563a.469.469 0 01-.469-.47V3.75A2.816 2.816 0 007.5.937 2.816 2.816 0 004.687 3.75v2.344a.469.469 0 01-.937 0V3.75A3.754 3.754 0 017.5 0a3.754 3.754 0 013.75 3.75v2.344c0 .258-.21.468-.469.468zM7.5 10.625a1.251 1.251 0 010-2.5 1.251 1.251 0 010 2.5zm0-1.563a.313.313 0 10.001.627.313.313 0 00-.001-.627z"/><path d="M7.5 12.5a.469.469 0 01-.469-.469v-1.719a.469.469 0 01.938 0v1.72c0 .258-.21.468-.469.468z"/></g><defs><clipPath id="clip0_1:92"><path fill="#fff" d="M0 0h15v15H0z"/></clipPath></defs></svg>