<svg width="16" height="19" fill="none" xmlns="http://www.w3.org/2000/svg"><path d="M15.2 15.514C15.2 18.638 10.863 19 7.6 19c-.329 0-.653-.005-.971-.014a.682.682 0 01-.666-.701c.01-.377.338-.66.705-.663.306.01.617.013.932.013 4.132 0 6.227-.713 6.227-2.121 0-1.422-2.095-2.143-6.227-2.143s-6.227.715-6.227 2.124c0 .46.164 1.128 1.591 1.609a.68.68 0 01.43.863.686.686 0 01-.87.428C.438 17.693 0 16.43 0 15.495c0-3.062 4.162-3.472 7.399-3.487h.563c2.159.01 7.238.202 7.238 3.506zM7.6 0c2.822 0 5.117 2.282 5.117 5.086 0 2.804-2.295 5.085-5.117 5.085S2.482 7.89 2.482 5.086 4.778 0 7.6 0zm0 1.365c-2.065 0-3.745 1.67-3.745 3.721s1.68 3.72 3.745 3.72c2.065 0 3.745-1.669 3.745-3.72 0-2.052-1.68-3.72-3.745-3.72z" fill="#322209"/></svg>