<svg width="27" height="27" fill="none" xmlns="http://www.w3.org/2000/svg"><path d="M7.32 22.827c1.128 0 2.045.937 2.045 2.087 0 1.15-.917 2.086-2.044 2.086s-2.045-.935-2.045-2.086c0-1.15.918-2.087 2.045-2.087zm15.19 0c1.128 0 2.046.937 2.046 2.087 0 1.15-.918 2.086-2.045 2.086-1.127 0-2.044-.935-2.044-2.086 0-1.15.917-2.087 2.044-2.087zM1.048 0l.138.014 2.81.497c.453.08.797.464.835.933l1.3 15.804c.062.758.671 1.33 1.418 1.33h14.73a1.44 1.44 0 001.407-1.243l1.281-9.036a.818.818 0 00-.186-.65.785.785 0 00-.604-.282H9.671A1.023 1.023 0 018.66 6.334c0-.57.453-1.033 1.012-1.033h14.506a2.8 2.8 0 012.134.996 2.92 2.92 0 01.66 2.298l-1.283 9.036c-.243 1.718-1.709 3.013-3.41 3.013H7.547c-1.808 0-3.285-1.386-3.436-3.224L2.878 2.41.84 2.052A1.033 1.033 0 01.015.857a1.016 1.016 0 011.17-.843L1.047 0zm19.066 10.394c.56 0 1.013.462 1.013 1.033 0 .57-.454 1.033-1.013 1.033H16.37c-.56 0-1.013-.463-1.013-1.033 0-.57.453-1.033 1.013-1.033h3.743z" fill="#30220D" fill-opacity=".96"/></svg>